<?xml version="1.0" encoding="utf-8"?>
<!-- Generator: Adobe Illustrator 16.0.0, SVG Export Plug-In . SVG Version: 6.00 Build 0)  -->
<!DOCTYPE svg PUBLIC "-//W3C//DTD SVG 1.1//EN" "http://www.w3.org/Graphics/SVG/1.1/DTD/svg11.dtd">
<svg version="1.1" id="Calque_1" xmlns="http://www.w3.org/2000/svg" xmlns:xlink="http://www.w3.org/1999/xlink" x="0px" y="0px"
	 width="785.5px" height="531px" viewBox="0 136.5 785.5 531" enable-background="new 0 136.5 785.5 531" xml:space="preserve">
<title></title>
<g id="fish">
	<path d="M48.693,230.509l686.358-2.3c18.833-0.063,34.151,15.153,34.214,33.986l0.969,289.073
		c0.063,18.833-15.152,34.15-33.985,34.214l-686.358,2.3c-18.833,0.063-34.151-15.152-34.214-33.985l-0.968-289.073
		C14.645,245.89,29.86,230.572,48.693,230.509z"/>
	<path d="M62.737,572.125c-16.062,0.237-29.307-12.527-29.662-28.588l-0.913-269.7C32.389,257.712,45.624,244.813,61.75,245
		l660.35-2.2c16.096-0.286,29.399,12.482,29.775,28.575l0.9,269.7c0.023,7.646-3.079,14.971-8.588,20.274
		c-5.618,5.474-13.156,8.529-21,8.513L62.737,572.125z"/>
	<path d="M722.213,239.725v6.25c14.336-0.238,26.183,11.128,26.537,25.462l0.9,269.7c-0.247,14.381-12.081,25.852-26.463,25.649
		L62.737,569c-14.324,0.217-26.146-11.153-26.487-25.475l-0.962-269.688c0.247-14.386,12.088-25.859,26.475-25.65l660.35-2.212
		L722.213,239.725 M722.213,239.725H722.1l-660.35,2.212c-17.839-0.208-32.474,14.074-32.7,31.913L30,543.55
		c0.335,17.772,14.963,31.938,32.737,31.7h0.113l660.35-2.213c17.844,0.216,32.484-14.075,32.7-31.92c0-0.002,0-0.003,0-0.005
		L755,271.425c-0.328-17.8-14.999-31.979-32.8-31.7H722.213z"/>
	<path d="M30.212,370.838c0,0,285.413-91.675,438.538-84.375c153.125,7.3,233.338,45.825,285.412,52.075v17.713
		c0,0-190.625-55.213-284.375-52.088c-93.75,3.125-354.162,59.375-440.625,116.676L30.212,370.838z"/>
	<path d="M755.213,473.963c0,0-112.5-107.301-263.551-122.926c-151.05-15.625-332.287,222.926-332.287,222.926h13.538
		c0,0,185.425-230.213,318.75-213.551c133.325,16.663,263.551,151.051,263.551,154.176V473.963z"/>
	<path d="M125.177,284.265l14.75-0.049c32.584-0.109,59.088,26.217,59.197,58.802l0.406,121.274
		c0.109,32.585-26.217,59.088-58.802,59.197l-14.75,0.05c-32.584,0.109-59.088-26.218-59.197-58.802l-0.406-121.274
		C66.266,310.878,92.592,284.375,125.177,284.265z"/>
	<path d="M188.75,458.563c0.742,27.755-21.134,50.867-48.888,51.65H127.6c-27.76-0.595-49.79-23.565-49.225-51.325L78.013,353.05
		C77.277,325.298,99.149,302.19,126.9,301.4h12.263c27.76,0.594,49.79,23.564,49.225,51.324L188.75,458.563z"/>
	<path d="M181.938,452.912c0.665,24.363-18.538,44.657-42.9,45.338h-10.763c-24.348-0.52-43.68-20.651-43.212-45l-0.313-92.9
		c-0.665-24.369,18.543-44.669,42.913-45.35h10.762c24.348,0.52,43.68,20.651,43.213,45L181.938,452.912z"/>
	<path d="M151.038,398.438c0,0-12.5,15.1-7.288,19.275c5.806,3.025,12.805,2.623,18.225-1.051
		C161.848,409.069,157.678,402.122,151.038,398.438z"/>
	<path d="M101.038,456.775c0,0-7.288,2.6-1.563,8.85c3.493,3.645,8.814,4.872,13.55,3.125
		C112.321,462.446,107.342,457.473,101.038,456.775z"/>
	<path d="M151.563,463.025c0,0-12.5,3.125-10.938,8.85c1.134,3.448,4.199,5.901,7.813,6.25l7.813-0.525
		C156.25,477.6,159.375,466.662,151.563,463.025z"/>
	<path d="M99.237,352.063c0,0,2.5,7.338,8.825,1.688c3.696-3.433,5.002-8.73,3.325-13.487
		C105.075,340.868,100.027,345.771,99.237,352.063z"/>
	<path d="M137.5,383.85c0,0-7.288,2.613-1.563,8.863c3.487,3.645,8.805,4.873,13.538,3.125
		C148.777,389.533,143.804,384.554,137.5,383.85z"/>
	<path d="M126.038,480.725c0,0-12.5,15.113-7.288,19.275c5.806,3.021,12.8,2.623,18.225-1.037
		C136.852,491.365,132.682,484.411,126.038,480.725z"/>
	<path d="M163.538,338.537c0,0-12.5,15.113-7.288,19.275c5.806,3.021,12.8,2.623,18.225-1.037
		C174.352,349.178,170.182,342.224,163.538,338.537z"/>
	<path d="M157.288,427.088c0,0-12.5,15.1-7.288,19.262c5.803,3.036,12.804,2.638,18.225-1.037
		C168.098,437.72,163.928,430.771,157.288,427.088z"/>
	<path d="M119.788,371.35c0,0-12.5,3.125-10.938,8.863c1.134,3.448,4.199,5.9,7.813,6.25l7.813-0.525
		C124.475,385.938,127.6,375,119.788,371.35z"/>
	<path d="M127.6,439.588c0,0-12.5,3.125-10.938,8.85c1.134,3.448,4.199,5.901,7.813,6.25l7.813-0.525
		C132.288,454.162,135.413,443.225,127.6,439.588z"/>
	<path d="M148.438,313.537c0,0-12.5,3.125-10.938,8.863c1.134,3.448,4.199,5.9,7.813,6.25l7.813-0.525
		C153.125,328.125,156.25,317.188,148.438,313.537z"/>
	<path d="M128.913,409.063c1.012,1.475-0.413,4.225-3.188,6.138l0,0c-2.775,1.925-5.837,2.287-6.863,0.813l-5.525-7.976
		c-1.012-1.475,0.413-4.212,3.188-6.137l0,0c2.763-1.926,5.837-2.288,6.863-0.813L128.913,409.063z"/>
	<path d="M164.125,485.775c-1.587,0.824-4.138-0.938-5.688-3.938l0,0c-1.55-2.988-1.513-6.088,0.075-6.9l8.612-4.463
		c1.587-0.824,4.138,0.938,5.688,3.938l0,0c1.55,2.988,1.513,6.088-0.075,6.9L164.125,485.775z"/>
	<path d="M142.875,362.612c-0.612,1.675-3.688,2.088-6.85,0.925l0,0c-3.163-1.175-5.225-3.487-4.6-5.162l3.363-9.1
		c0.625-1.676,3.688-2.088,6.85-0.913l0,0c3.162,1.163,5.225,3.476,4.612,5.15L142.875,362.612z"/>
	<path d="M103,416.563c-0.612,1.675-3.688,2.088-6.85,0.925l0,0c-3.163-1.175-5.225-3.487-4.6-5.162l3.363-9.101
		c0.625-1.675,3.688-2.087,6.85-0.912l0,0c3.162,1.162,5.225,3.475,4.612,5.15L103,416.563z"/>
	<path d="M145.475,439.7c-0.613,1.675-3.675,2.087-6.85,0.912l0,0c-3.163-1.162-5.225-3.475-4.6-5.149l3.375-9.101
		c0.613-1.675,3.675-2.087,6.837-0.925l0,0c3.175,1.175,5.225,3.487,4.613,5.162L145.475,439.7z"/>
	<path d="M131.65,331.675c-0.625,1.675-3.688,2.088-6.85,0.913l0,0c-3.162-1.176-5.225-3.476-4.612-5.15l3.375-9.112
		c0.612-1.675,3.688-2.088,6.85-0.913l0,0c3.163,1.176,5.225,3.476,4.6,5.15L131.65,331.675z"/>
	<path d="M146.087,303.912c-9.951-1.273-20.058-0.478-29.688,2.338c-15.625,4.688-24.212,17.975-4.688,32.813
		c19.89,16.184,38.681,33.672,56.25,52.35c6.25,7.025,17.188,4.688,17.188-11.725s-0.775-32.025-0.775-32.025
		C181.854,326.579,166.65,309.206,146.087,303.912z"/>
	<ellipse transform="matrix(-0.9476 -0.3194 0.3194 -0.9476 197.1566 669.8536)" cx="153.512" cy="318.758" rx="11.325" ry="8.6"/>
	<ellipse transform="matrix(-0.9476 -0.3194 0.3194 -0.9476 227.6992 717.0151)" cx="172.649" cy="339.835" rx="4.937" ry="3.75"/>
	<path d="M81.35,445c-0.614,10.769,1.117,21.542,5.075,31.575c7.021,15.911,22.508,26.418,39.888,27.063l13.638,0.737
		c0,0,11.712-0.787,1.563-12.112C131.362,480.938,81.35,421.525,81.35,445z"/>
	<ellipse transform="matrix(-0.9476 -0.3194 0.3194 -0.9476 43.824 975.7439)" cx="101.925" cy="484.278" rx="4.938" ry="3.75"/>
	<path d="M336.112,534.813c0,0,11.863,18.85,25.45,9.175c4.606-4.374,6.877-10.667,6.125-16.975c0,0,20.125,6.075,24.138-10.862
		c4.012-16.938-1.25-18.988-1.25-18.988s16.763-9.712,10.263-22.3c-6.5-12.587-12.851-14.612-12.851-14.612
		s17.775-12.888,7.038-26.475c-10.737-13.588-17.063-13.5-17.063-13.5c0.57-14.878-10.022-27.854-24.712-30.275
		c0,0-11.888-20.95-28.75-21.787c-12.982-2.968-25.912,5.151-28.879,18.133c-0.173,0.757-0.31,1.521-0.409,2.292
		c-2.36,10.405-2.581,21.182-0.65,31.675c0,0-5.237,3.237-8.225,17c-1.792,8.01,0.719,16.375,6.625,22.075
		c-6.793,5.744-10.249,14.516-9.2,23.35c2.215,10.641,9.397,19.574,19.313,24.025C304.914,523.391,319.407,535.695,336.112,534.813z
		"/>
	<path d="M450.8,547.075c0,0,16.663,14.774,27,1.675c3.193-5.487,3.605-12.161,1.112-18c0,0,21.038,0.188,20.125-17.2
		c-0.912-17.388-6.563-17.862-6.563-17.862s13.363-14.025,3.601-24.275s-16.438-10.425-16.438-10.425s13.45-17.362-0.663-27.399
		c-14.112-10.038-20.162-8.176-20.162-8.176c-3.61-14.438-17.398-23.936-32.175-22.162c0,0-17.275-16.787-33.75-12.85
		c-16.475,3.938-22.975,11.449-22.388,27.824c0.65,10.651,3.461,21.059,8.263,30.588c0,0-4.113,4.575-3.125,18.612
		c0.515,8.187,5.249,15.516,12.5,19.351c-4.914,7.42-5.773,16.812-2.288,25c5.106,9.599,14.505,16.167,25.275,17.662
		C417.563,544.924,434.989,552.671,450.8,547.075z"/>
	<path d="M678.1,541.888c0,0,17.5,13.75,27.051,0.112c2.877-5.662,2.904-12.352,0.074-18.037c0,0,21-1.038,19.088-18.338
		s-7.588-17.5-7.588-17.5s12.5-14.775,2.2-24.45s-17.013-9.45-17.013-9.45s12.413-18.112-2.25-27.313c-14.662-9.199-20.6-7-20.6-7
		c-4.439-14.203-18.752-22.886-33.4-20.262c0,0-18.225-15.75-34.425-10.875c-13.219,1.551-22.679,13.524-21.128,26.743
		c0.093,0.783,0.223,1.562,0.391,2.331c1.257,10.597,4.659,20.825,10,30.063c0,0-3.85,4.801-2.05,18.75
		c1,8.147,6.165,15.188,13.638,18.588c-4.472,7.688-4.786,17.106-0.838,25.075c5.642,9.304,15.405,15.334,26.25,16.212
		C644.818,541.614,662.638,548.352,678.1,541.888z"/>
	<path d="M728.55,410.15c0,0,21.65-5.213,16.825-21.188c-2.625-8.75-14.138-11.25-14.138-11.25s12.188-17.138-2.587-26.338
		c-14.775-9.2-18.4-4.838-18.4-4.838s-3.862-18.987-17.85-16.85c-6.7,0.236-13.084,2.902-17.963,7.5c0,0-6.537-20.975-22.838-15.138
		c-16.3,5.838-18.237,11.851-18.237,11.851c-13.918-5.301-29.605,0.595-36.587,13.75c0,0-23.663,4.563-29.851,20.313
		c-6.963,11.352-3.405,26.198,7.946,33.161c0.666,0.408,1.352,0.784,2.054,1.126c9.108,5.558,19.251,9.207,29.813,10.725
		c0,0,1.388,5.988,13.476,13.226c7.019,4.256,15.748,4.549,23.037,0.774c3.278,8.298,10.515,14.387,19.25,16.2
		c10.791,1.296,21.55-2.654,28.938-10.625C707.788,436.089,724.063,426.267,728.55,410.15z"/>
	<path d="M271.538,392.075c0,0,139.55,95.537,183.675,119.388c41.637,22.5,156.25,81.25,232.287-29.188
		c10.844-15.586,15.756-34.535,13.85-53.426c-3.824-36.149-24.662-94.824-113.287-131.412c-36.585-14.934-75.734-22.577-115.25-22.5
		c-48.85-0.087-132.95-0.875-149.2-5.212c-23.2-6.175-40.537,46.663-3.15,53.512c4.303,0.776,8.563,1.773,12.763,2.987
		c8.229,2.554,12.829,11.294,10.276,19.522c-2.414,7.78-10.407,12.393-18.351,10.591c-4.436-1.129-8.794-2.54-13.05-4.226
		C268,334.85,255.638,381.25,271.538,392.075z"/>
	<path d="M273.663,385.862c0,0,139.55,95.525,183.675,119.375c41.637,22.5,156.25,81.25,232.287-29.175
		c10.838-15.588,15.746-34.536,13.838-53.425c-3.75-36.163-24.65-94.825-113.275-131.413c-36.585-14.933-75.734-22.576-115.25-22.5
		c-48.85-0.087-132.95-0.888-149.2-5.212c-23.2-6.25-40.55,46.649-3.15,53.513c4.299,0.774,8.555,1.771,12.75,2.987
		c8.246,2.475,12.923,11.165,10.449,19.41c-2.371,7.899-10.484,12.585-18.511,10.689c-4.438-1.122-8.797-2.534-13.05-4.225
		C270.125,328.625,257.763,375,273.663,385.862z"/>
	<path d="M432.4,268.413c20.962,32.7,56.625,89.025,73.949,120.637l12.088-11.475c-19.271-37.747-41.053-74.158-65.2-108.988
		C446.525,268.55,439.537,268.5,432.4,268.413z"/>
	<path d="M592.037,292.05c-23.929,21.52-43.772,47.187-58.574,75.763l21.949,2.037c15.458-26.175,36.51-48.61,61.65-65.699
		C608.939,299.68,600.586,295.641,592.037,292.05z"/>
	<path d="M675.6,353.112c-25.938,3.525-68.462,12.15-95.25,32.663l13.476,16.725c30.808-12.951,63.248-21.611,96.412-25.737
		C686.133,368.426,681.23,360.505,675.6,353.112z"/>
	<path d="M610.375,536.25c8.672-2.416,17.055-5.77,25-10c-23.187-25.55-42.668-54.229-57.875-85.2l-21.175,3.75
		C563.525,480.412,593.525,517.625,610.375,536.25z"/>
	<path d="M509.175,427.5c-8.039,32.541-9.762,66.322-5.075,99.513c8.958,3.38,18.107,6.227,27.4,8.524
		c-8.807-30.948-10.329-63.515-4.45-95.149L509.175,427.5z"/>
	<path d="M372.413,452.112c44.943-10.604,89.021-24.581,131.863-41.813l-1.575-16.55c-38.476,14.125-115.8,36.763-148.75,46.25
		C360.075,443.987,366.25,448.063,372.413,452.112z"/>
	<circle cx="546.925" cy="407.112" r="48.612"/>
	<circle cx="546.975" cy="407.15" r="39.438"/>
	<path d="M592.5,456.463c12.371,22.053,27.789,42.252,45.8,60c14.081-9.855,26.532-21.855,36.9-35.563l-9.013-6.976l12.05,2.125
		c5.957-7.679,9.968-16.685,11.688-26.25l-74.612-21.05c-3.867,6.572-8.555,12.625-13.95,18.013l6.713,8.087l-9.5-4.475
		L592.5,456.463z"/>
	<path d="M621.725,412.138c0,0,49.113-0.163,67.9,0.7c0,0-1.325-10.388-2.588-17.138c-21.912,0.603-43.758,2.69-65.387,6.25
		L621.725,412.138z"/>
	<path d="M532.787,472.725c5.778,0.983,11.647,1.327,17.5,1.025c8.295,19.059,18.237,37.357,29.713,54.688
		c-11.639,1.529-23.411,1.756-35.1,0.675C539.351,510.674,535.3,491.816,532.787,472.725z"/>
	<path d="M497.737,439.825c-8.946,20.04-16.816,40.545-23.575,61.425l-15.675-8.3c0,0,23.101-39.75,35.375-58.101L497.737,439.825z"
		/>
	<path d="M585.513,363.75c21.167-9.943,43.163-18.016,65.737-24.125c-8.701-8.899-18.246-16.934-28.5-23.987
		c-17.024,10.97-32.46,24.228-45.875,39.399C580.362,357.269,583.313,360.243,585.513,363.75z"/>
	<path d="M404.125,461.475c0,0,15.95,10.426,23.013,15l62.388-45.837l-4.013-5.987C459.061,438.369,431.892,450.661,404.125,461.475
		z"/>
	<path d="M495,282.075c0,0,19.662,65.175,22.213,76.763c2.925-2.034,6.27-3.385,9.787-3.95l4.287-21.663l0.713,22.65
		c9.125-22.591,22.034-43.461,38.175-61.712c0,0-31.938-8.388-43.462-9.625l-2.688,17.125l-3.375-17.975L495,282.075z"/>
	<path d="M350.65,411.425c0,0,102.5-15.737,126.05-26.313c0,0-91.25-11.125-104.888-15.899
		C358.175,364.438,350.65,411.425,350.65,411.425z"/>
	<path d="M389.15,283.75c0,0,76.887,69.575,90.725,91.375c0,0-82.325-40.975-96.25-44.487S389.15,283.75,389.15,283.75z"/>
	<circle cx="630.475" cy="335.887" r="65.425"/>
	<path d="M609.513,321.662L594.35,306.5c-2.571-2.515-6.694-2.469-9.209,0.103c-0.361,0.368-0.677,0.779-0.94,1.223
		c-3.17,5.144-5.448,10.785-6.737,16.688c-0.856,3.493,1.281,7.02,4.774,7.876c0.483,0.118,0.978,0.181,1.476,0.187h21.25
		c3.527,0.023,6.405-2.818,6.429-6.346C611.403,324.517,610.726,322.871,609.513,321.662z"/>
	<path d="M605,341.175h-20.975c-3.59,0.016-6.488,2.938-6.474,6.527c0.003,0.561,0.077,1.119,0.224,1.66
		c1.416,5.729,3.76,11.189,6.938,16.163c1.875,3.061,5.877,4.021,8.938,2.146c0.415-0.255,0.801-0.556,1.148-0.896l14.663-14.663
		c2.513-2.476,2.543-6.52,0.066-9.033C608.334,341.866,606.703,341.181,605,341.175z"/>
	<path d="M635.1,289.688v21.388c-0.002,3.527,2.855,6.39,6.384,6.392c1.699,0.001,3.329-0.675,4.529-1.879l15-15
		c2.509-2.578,2.454-6.701-0.123-9.209c-0.343-0.333-0.721-0.628-1.127-0.878c-5.068-3.248-10.646-5.622-16.5-7.025
		c-3.479-0.912-7.039,1.17-7.95,4.649C635.179,288.635,635.107,289.16,635.1,289.688z"/>
	<path d="M618.4,283.3c-5.944,1.339-11.617,3.681-16.775,6.925c-3.066,1.867-4.038,5.866-2.17,8.932
		c0.26,0.428,0.568,0.823,0.92,1.181l15.25,15.25c2.49,2.499,6.534,2.506,9.033,0.017c1.204-1.2,1.881-2.83,1.879-4.529v-21.55
		c-0.045-3.596-2.996-6.476-6.593-6.431C619.423,283.101,618.904,283.17,618.4,283.3z"/>
	<path d="M656.6,332.575h20.638c3.59-0.036,6.471-2.976,6.435-6.565c-0.005-0.496-0.067-0.99-0.185-1.473
		c-1.248-5.736-3.436-11.227-6.475-16.25c-1.812-3.1-5.792-4.144-8.892-2.333c-0.462,0.271-0.889,0.597-1.271,0.971l-14.75,14.75
		c-2.492,2.497-2.488,6.541,0.009,9.033C653.301,331.898,654.915,332.569,656.6,332.575z"/>
	<path d="M652.088,352.088l14.25,14.25c2.568,2.518,6.691,2.476,9.209-0.093c0.344-0.351,0.646-0.739,0.903-1.157
		c3.045-4.854,5.294-10.162,6.662-15.726c0.925-3.469-1.137-7.03-4.605-7.955c-0.536-0.144-1.089-0.217-1.645-0.22H656.6
		c-3.527,0.005-6.384,2.868-6.379,6.396C650.223,349.272,650.895,350.892,652.088,352.088z"/>
	<path d="M635.1,362.675v20.063c0.031,3.597,2.973,6.487,6.569,6.456c0.529-0.005,1.056-0.074,1.568-0.206
		c5.524-1.317,10.803-3.508,15.638-6.487c3.067-1.852,4.053-5.84,2.2-8.907c-0.267-0.442-0.586-0.851-0.95-1.218L645.95,358.2
		c-2.523-2.465-6.568-2.418-9.033,0.106C635.774,359.477,635.124,361.04,635.1,362.675z"/>
	<path d="M615.588,358.162l-14.426,14.426c-2.511,2.564-2.467,6.681,0.099,9.191c0.377,0.369,0.797,0.69,1.252,0.958
		c4.929,2.977,10.307,5.138,15.925,6.4c3.484,0.863,7.009-1.263,7.872-4.747c0.122-0.492,0.186-0.996,0.19-1.503v-20.213
		c0.002-3.527-2.855-6.39-6.383-6.392C618.417,356.282,616.787,356.958,615.588,358.162z"/>
	<path d="M650.6,293.075c1.331-2.373,4.333-3.217,6.705-1.887c0.361,0.203,0.695,0.45,0.995,0.736c4.275,4-5.712,13.75-8.563,16.838
		C646.888,311.85,643.463,302.775,650.6,293.075z"/>
	<path d="M674.625,320.575c0,0,6.05-1.25,6.25,4.638c0.2,5.887-13.75,5.649-17.963,5.85
		C658.7,331.263,662.725,322.388,674.625,320.575z"/>
	<path d="M673.375,356.688c2.372,1.33,3.217,4.332,1.887,6.705c-0.203,0.361-0.45,0.695-0.736,0.995c-4,4.287-13.75-5.7-16.838-8.55
		C654.6,352.987,663.675,349.563,673.375,356.688z"/>
</g>
</svg>
